<mxfile host="app.diagrams.net" modified="2023-10-31T19:39:19.253Z" agent="Mozilla/5.0 (Windows NT 10.0; Win64; x64) AppleWebKit/537.36 (KHTML, like Gecko) Chrome/118.0.0.0 Safari/537.36 Edg/118.0.2088.76" etag="xTEVcyAc4dhDOsYGfpiw" version="21.7.5" type="device">
  <diagram name="Page-1" id="5f0bae14-7c28-e335-631c-24af17079c00">
    <mxGraphModel dx="679" dy="378" grid="1" gridSize="10" guides="1" tooltips="1" connect="1" arrows="1" fold="1" page="1" pageScale="1" pageWidth="1100" pageHeight="850" background="none" math="0" shadow="0">
      <root>
        <mxCell id="0" />
        <mxCell id="1" parent="0" />
        <mxCell id="OGeez33jNwC8XNeevvoW-1" value="&lt;p style=&quot;margin: 6px 0px 0px; text-align: center; font-size: 16px;&quot;&gt;&lt;font style=&quot;font-size: 16px;&quot;&gt;&amp;lt;&amp;lt;Component&amp;gt;&amp;gt;&lt;/font&gt;&lt;/p&gt;&lt;p style=&quot;margin: 6px 0px 0px; text-align: center; font-size: 16px;&quot;&gt;&lt;b style=&quot;&quot;&gt;&lt;font style=&quot;font-size: 16px;&quot;&gt;Autentikációs szerver&lt;/font&gt;&lt;/b&gt;&lt;/p&gt;" style="align=left;overflow=fill;html=1;dropTarget=0;whiteSpace=wrap;" vertex="1" parent="1">
          <mxGeometry x="340" y="120" width="220" height="70" as="geometry" />
        </mxCell>
        <mxCell id="OGeez33jNwC8XNeevvoW-2" value="" style="shape=component;jettyWidth=8;jettyHeight=4;" vertex="1" parent="OGeez33jNwC8XNeevvoW-1">
          <mxGeometry x="1" width="20" height="20" relative="1" as="geometry">
            <mxPoint x="-24" y="4" as="offset" />
          </mxGeometry>
        </mxCell>
        <mxCell id="OGeez33jNwC8XNeevvoW-3" value="&lt;p style=&quot;margin: 6px 0px 0px; text-align: center; font-size: 16px;&quot;&gt;&lt;font style=&quot;font-size: 16px;&quot;&gt;&amp;lt;&amp;lt;Component&amp;gt;&amp;gt;&lt;/font&gt;&lt;/p&gt;&lt;p style=&quot;margin: 6px 0px 0px; text-align: center; font-size: 16px;&quot;&gt;&lt;b style=&quot;&quot;&gt;&lt;font style=&quot;font-size: 16px;&quot;&gt;REST API&lt;/font&gt;&lt;/b&gt;&lt;/p&gt;" style="align=left;overflow=fill;html=1;dropTarget=0;whiteSpace=wrap;" vertex="1" parent="1">
          <mxGeometry x="190" y="280" width="230" height="70" as="geometry" />
        </mxCell>
        <mxCell id="OGeez33jNwC8XNeevvoW-4" value="" style="shape=component;jettyWidth=8;jettyHeight=4;" vertex="1" parent="OGeez33jNwC8XNeevvoW-3">
          <mxGeometry x="1" width="20" height="20" relative="1" as="geometry">
            <mxPoint x="-24" y="4" as="offset" />
          </mxGeometry>
        </mxCell>
        <mxCell id="OGeez33jNwC8XNeevvoW-5" value="&lt;p style=&quot;margin: 6px 0px 0px; text-align: center; font-size: 16px;&quot;&gt;&lt;font style=&quot;font-size: 16px;&quot;&gt;&amp;lt;&amp;lt;Component&amp;gt;&amp;gt;&lt;/font&gt;&lt;/p&gt;&lt;p style=&quot;margin: 6px 0px 0px; text-align: center; font-size: 16px;&quot;&gt;&lt;b style=&quot;&quot;&gt;&lt;font style=&quot;font-size: 16px;&quot;&gt;Kliens alkalmazás&lt;/font&gt;&lt;/b&gt;&lt;/p&gt;" style="align=left;overflow=fill;html=1;dropTarget=0;whiteSpace=wrap;" vertex="1" parent="1">
          <mxGeometry x="560" y="240" width="460" height="280" as="geometry" />
        </mxCell>
        <mxCell id="OGeez33jNwC8XNeevvoW-6" value="" style="shape=component;jettyWidth=8;jettyHeight=4;" vertex="1" parent="OGeez33jNwC8XNeevvoW-5">
          <mxGeometry x="1" width="20" height="20" relative="1" as="geometry">
            <mxPoint x="-24" y="4" as="offset" />
          </mxGeometry>
        </mxCell>
        <mxCell id="OGeez33jNwC8XNeevvoW-7" value="&lt;p style=&quot;margin: 6px 0px 0px; text-align: center; font-size: 16px;&quot;&gt;&lt;font style=&quot;font-size: 16px;&quot;&gt;&amp;lt;&amp;lt;Component&amp;gt;&amp;gt;&lt;/font&gt;&lt;/p&gt;&lt;p style=&quot;margin: 6px 0px 0px; text-align: center; font-size: 16px;&quot;&gt;&lt;b style=&quot;&quot;&gt;&lt;font style=&quot;font-size: 16px;&quot;&gt;Web kliens&lt;/font&gt;&lt;/b&gt;&lt;/p&gt;" style="align=left;overflow=fill;html=1;dropTarget=0;whiteSpace=wrap;" vertex="1" parent="1">
          <mxGeometry x="682.5" y="310" width="215" height="60" as="geometry" />
        </mxCell>
        <mxCell id="OGeez33jNwC8XNeevvoW-8" value="" style="shape=component;jettyWidth=8;jettyHeight=4;" vertex="1" parent="OGeez33jNwC8XNeevvoW-7">
          <mxGeometry x="1" width="20" height="20" relative="1" as="geometry">
            <mxPoint x="-24" y="4" as="offset" />
          </mxGeometry>
        </mxCell>
        <mxCell id="OGeez33jNwC8XNeevvoW-9" value="&lt;p style=&quot;margin: 6px 0px 0px; text-align: center; font-size: 16px;&quot;&gt;&lt;font style=&quot;font-size: 16px;&quot;&gt;&amp;lt;&amp;lt;Component&amp;gt;&amp;gt;&lt;/font&gt;&lt;/p&gt;&lt;p style=&quot;margin: 6px 0px 0px; text-align: center; font-size: 16px;&quot;&gt;&lt;font style=&quot;font-size: 16px;&quot;&gt;&lt;b style=&quot;&quot;&gt;Játékok&lt;/b&gt;&lt;/font&gt;&lt;/p&gt;" style="align=left;overflow=fill;html=1;dropTarget=0;whiteSpace=wrap;" vertex="1" parent="1">
          <mxGeometry x="681.25" y="425" width="217.5" height="60" as="geometry" />
        </mxCell>
        <mxCell id="OGeez33jNwC8XNeevvoW-10" value="" style="shape=component;jettyWidth=8;jettyHeight=4;" vertex="1" parent="OGeez33jNwC8XNeevvoW-9">
          <mxGeometry x="1" width="20" height="20" relative="1" as="geometry">
            <mxPoint x="-24" y="4" as="offset" />
          </mxGeometry>
        </mxCell>
        <mxCell id="OGeez33jNwC8XNeevvoW-11" value="&lt;p style=&quot;margin: 6px 0px 0px; text-align: center; font-size: 16px;&quot;&gt;&lt;font style=&quot;font-size: 16px;&quot;&gt;&amp;lt;&amp;lt;Component&amp;gt;&amp;gt;&lt;/font&gt;&lt;/p&gt;&lt;p style=&quot;margin: 6px 0px 0px; text-align: center; font-size: 16px;&quot;&gt;&lt;b style=&quot;&quot;&gt;&lt;font style=&quot;font-size: 16px;&quot;&gt;Játék alkalmazások&lt;/font&gt;&lt;/b&gt;&lt;/p&gt;" style="align=left;overflow=fill;html=1;dropTarget=0;whiteSpace=wrap;" vertex="1" parent="1">
          <mxGeometry x="160" y="600" width="260" height="80" as="geometry" />
        </mxCell>
        <mxCell id="OGeez33jNwC8XNeevvoW-12" value="" style="shape=component;jettyWidth=8;jettyHeight=4;" vertex="1" parent="OGeez33jNwC8XNeevvoW-11">
          <mxGeometry x="1" width="20" height="20" relative="1" as="geometry">
            <mxPoint x="-24" y="4" as="offset" />
          </mxGeometry>
        </mxCell>
        <mxCell id="OGeez33jNwC8XNeevvoW-13" value="&lt;p style=&quot;margin: 6px 0px 0px; text-align: center; font-size: 16px;&quot;&gt;&lt;font style=&quot;font-size: 16px;&quot;&gt;&amp;lt;&amp;lt;Component&amp;gt;&amp;gt;&lt;/font&gt;&lt;/p&gt;&lt;p style=&quot;margin: 6px 0px 0px; text-align: center; font-size: 16px;&quot;&gt;&lt;b style=&quot;&quot;&gt;&lt;font style=&quot;font-size: 16px;&quot;&gt;Játék alkalmazások&lt;/font&gt;&lt;/b&gt;&lt;/p&gt;" style="align=left;overflow=fill;html=1;dropTarget=0;whiteSpace=wrap;" vertex="1" parent="1">
          <mxGeometry x="190" y="630" width="260" height="80" as="geometry" />
        </mxCell>
        <mxCell id="OGeez33jNwC8XNeevvoW-14" value="" style="shape=component;jettyWidth=8;jettyHeight=4;" vertex="1" parent="OGeez33jNwC8XNeevvoW-13">
          <mxGeometry x="1" width="20" height="20" relative="1" as="geometry">
            <mxPoint x="-24" y="4" as="offset" />
          </mxGeometry>
        </mxCell>
        <mxCell id="OGeez33jNwC8XNeevvoW-15" value="&lt;p style=&quot;margin: 6px 0px 0px; text-align: center; font-size: 16px;&quot;&gt;&lt;font style=&quot;font-size: 16px;&quot;&gt;&amp;lt;&amp;lt;Component&amp;gt;&amp;gt;&lt;/font&gt;&lt;/p&gt;&lt;p style=&quot;margin: 6px 0px 0px; text-align: center; font-size: 16px;&quot;&gt;&lt;b style=&quot;&quot;&gt;&lt;font style=&quot;font-size: 16px;&quot;&gt;Játék alkalmazások&lt;/font&gt;&lt;/b&gt;&lt;/p&gt;" style="align=left;overflow=fill;html=1;dropTarget=0;whiteSpace=wrap;" vertex="1" parent="1">
          <mxGeometry x="220" y="660" width="250" height="80" as="geometry" />
        </mxCell>
        <mxCell id="OGeez33jNwC8XNeevvoW-16" value="" style="shape=component;jettyWidth=8;jettyHeight=4;" vertex="1" parent="OGeez33jNwC8XNeevvoW-15">
          <mxGeometry x="1" width="20" height="20" relative="1" as="geometry">
            <mxPoint x="-24" y="4" as="offset" />
          </mxGeometry>
        </mxCell>
        <mxCell id="OGeez33jNwC8XNeevvoW-19" value="" style="rounded=0;orthogonalLoop=1;jettySize=auto;html=1;endArrow=halfCircle;endFill=0;endSize=6;strokeWidth=1;sketch=0;" edge="1" target="OGeez33jNwC8XNeevvoW-21" parent="1" source="OGeez33jNwC8XNeevvoW-3">
          <mxGeometry relative="1" as="geometry">
            <mxPoint x="570" y="405" as="sourcePoint" />
            <Array as="points" />
          </mxGeometry>
        </mxCell>
        <mxCell id="OGeez33jNwC8XNeevvoW-20" value="" style="rounded=0;orthogonalLoop=1;jettySize=auto;html=1;endArrow=oval;endFill=0;sketch=0;sourcePerimeterSpacing=0;targetPerimeterSpacing=0;endSize=10;exitX=0.5;exitY=1;exitDx=0;exitDy=0;" edge="1" target="OGeez33jNwC8XNeevvoW-21" parent="1" source="OGeez33jNwC8XNeevvoW-1">
          <mxGeometry relative="1" as="geometry">
            <mxPoint x="530" y="405" as="sourcePoint" />
          </mxGeometry>
        </mxCell>
        <mxCell id="OGeez33jNwC8XNeevvoW-21" value="" style="ellipse;whiteSpace=wrap;html=1;align=center;aspect=fixed;fillColor=none;strokeColor=none;resizable=0;perimeter=centerPerimeter;rotatable=0;allowArrows=0;points=[];outlineConnect=1;" vertex="1" parent="1">
          <mxGeometry x="360" y="230" width="10" height="10" as="geometry" />
        </mxCell>
        <mxCell id="OGeez33jNwC8XNeevvoW-25" value="" style="ellipse;whiteSpace=wrap;html=1;align=center;aspect=fixed;fillColor=none;strokeColor=none;resizable=0;perimeter=centerPerimeter;rotatable=0;allowArrows=0;points=[];outlineConnect=1;" vertex="1" parent="1">
          <mxGeometry x="545" y="380" width="10" height="10" as="geometry" />
        </mxCell>
        <mxCell id="OGeez33jNwC8XNeevvoW-39" value="" style="rounded=0;orthogonalLoop=1;jettySize=auto;html=1;endArrow=halfCircle;endFill=0;endSize=6;strokeWidth=1;sketch=0;exitX=0.25;exitY=0;exitDx=0;exitDy=0;" edge="1" target="OGeez33jNwC8XNeevvoW-41" parent="1">
          <mxGeometry relative="1" as="geometry">
            <mxPoint x="677.5" y="240" as="sourcePoint" />
          </mxGeometry>
        </mxCell>
        <mxCell id="OGeez33jNwC8XNeevvoW-40" value="" style="rounded=0;orthogonalLoop=1;jettySize=auto;html=1;endArrow=oval;endFill=0;sketch=0;sourcePerimeterSpacing=0;targetPerimeterSpacing=0;endSize=10;exitX=1;exitY=0.5;exitDx=0;exitDy=0;" edge="1" target="OGeez33jNwC8XNeevvoW-41" parent="1">
          <mxGeometry relative="1" as="geometry">
            <mxPoint x="562.5" y="155" as="sourcePoint" />
          </mxGeometry>
        </mxCell>
        <mxCell id="OGeez33jNwC8XNeevvoW-41" value="" style="ellipse;whiteSpace=wrap;html=1;align=center;aspect=fixed;fillColor=none;strokeColor=none;resizable=0;perimeter=centerPerimeter;rotatable=0;allowArrows=0;points=[];outlineConnect=1;" vertex="1" parent="1">
          <mxGeometry x="672.5" y="160" width="10" height="10" as="geometry" />
        </mxCell>
      </root>
    </mxGraphModel>
  </diagram>
</mxfile>
